<svg class="socials__icon" xmlns="http://www.w3.org/2000/svg" width="50" height="50"><rect width="100%" height="100%" x="0" y="0" fill="none" stroke="none"></rect><g><path d="M24.951429748230765,0 C11.173407294171064,0 0.000014396176531328803,11.43927447723115 0.000014396176531328803,25.55068203590673 a25.05123349072979,25.54750092509549 0 0 0 17.068901713519285,24.243245492485705 c1.2477267334443922,0.2354022000320094 1.7031469911515957,-0.5535132811563467 1.7031469911515957,-1.2310898839511841 c0,-0.6075921649474839 -0.021835217835276897,-2.2140531246253863 -0.03431248516972084,-4.345397368158442 c-6.940479954784433,1.5428387434530337 -8.406558866581594,-3.426056343709108 -8.406558866581594,-3.426056343709108 c-1.132312010600787,-2.9520708328338463 -2.7699533482465526,-3.7378052032109577 -2.7699533482465526,-3.7378052032109577 c-2.267743338035184,-1.5841931839991983 0.16844310901499326,-1.5523820758867644 0.16844310901499326,-1.5523820758867644 c2.5048114173896177,0.18132331624087206 3.8211631211734516,2.6339597517095106 3.8211631211734516,2.6339597517095106 c2.2271922191982414,3.903222965395614 5.842480429353367,2.777109738215462 7.2648889054799755,2.1218009110993274 c0.22459081201999073,-1.6509965110353086 0.8702893965774636,-2.777109738215462 1.584612951474378,-3.4165130112753768 c-5.5399066964931025,-0.645765494682404 -11.366790541678414,-2.837550843629085 -11.366790541678414,-12.625828809824926 c0,-2.789834181460435 0.9732268520866267,-5.07069063312193 2.5703170708954493,-6.858474909040701 c-0.2589032971897118,-0.645765494682404 -1.1135961095991207,-3.244733027468235 0.2433067130216567,-6.759860473892156 c0,0 2.0961809121865813,-0.6871199352285681 6.862497033944158,2.6180541976532923 a23.809745390952617,24.281418822220626 0 0 1 6.2479916177227945,-0.8588999190357098 a23.862773777124,24.33549770601176 0 0 1 6.2479916177227945,0.8620810298469533 c4.763196804923967,-3.3051741328818594 6.856258400276935,-2.6180541976532923 6.856258400276935,-2.6180541976532923 c1.3600221394543883,3.5183085572351653 0.5053293270449796,6.114094979209754 0.24954534668887873,6.759860473892156 c1.600209535642433,1.7877842759187736 2.5640784372282273,4.068640727580268 2.5640784372282273,6.858474909040701 c0,9.813726852685791 -5.833122478852534,11.973701093520038 -11.391745076347302,12.606742144957465 c0.8952439312463524,0.7889154811883556 1.6937890406507627,2.347659778697607 1.6937890406507627,4.7303117763188895 c0,3.4165130112753768 -0.031193168336109828,6.171354973812133 -0.031193168336109828,7.007987117169139 c0,0.6839388244173247 0.44918162403998146,1.479216527228166 1.7156242584860397,1.2279087731399414 A25.054352807563397,25.55068203590673 0 0 0 49.90908373395222,25.55068203590673 C49.90908373395222,11.43927447723115 38.73569083595769,0 24.951429748230765,0 z"></path></g></svg>